<?xml version="1.0" encoding="utf-8"?>
<?xml-stylesheet type="text/xsl" href="rss1.xsl"?>
<rss version="2.0" xmlns:atom="http://www.w3.org/2005/Atom" xmlns:content="http://purl.org/rss/1.0/modules/content/" xmlns:dc="http://purl.org/dc/elements/1.1/" xmlns:media="http://search.yahoo.com/mrss/">
<channel>
 <title>Getty</title>
 <link>http://www.gettyimg.com/</link>
 <atom:link href="http://www.gettyimg.com/" rel="self" type="application/rss+xml" />

 
                <item>
                <title><![CDATA[【BLU-RAY &amp; BD RIP】AKB48 Sayonara Crawl (Dance Ver.) M2ts Bluray]]></title>
                <link><![CDATA[https://sharemania.us/threads/akb48-sayonara-crawl-dance-ver-m2ts-bluray.235451/]]></link>
                <description><![CDATA[<article>
<blockquote class="messageText SelectQuoteContainer ugc baseHtml">
<img src="https://i.imgur.com/owTPyUC.jpg" class="bbCodeImage LbImage" alt="[​IMG]" data-url="https://i.imgur.com/owTPyUC.jpg" style=""> <br>
<br>
<div class="bbCodeBlock bbCodeCode">
<div class="type">Code:</div>
<pre>General
ID                             : 0 (0x0)
Complete name                  : D:\♬.AKB48 MV         Blu-ray 1920x1080\♬.Sayonara Crawl (Dance ver.).m2ts
Format                         : BDAV
Format/Info                    : Blu-ray Video
File size                      : 1.30 GiB
Duration                       : 5 min 7 s
Overall bit rate mode          : Variable
Overall bit rate               : 36.5 Mb/s
Maximum Overall bit rate       : 48.0 Mb/s
Frame rate                     : 29.970 FPS

Video
ID                             : 4113 (0x1011)
Menu ID                        : 1 (0x1)
Format                         : AVC
Format/Info                    : Advanced Video Codec
Format profile                 : High@L4.1
Format settings                : CABAC / 4 Ref Frames
Format settings, CABAC         : Yes
Format settings, Reference fra : 4 frames
Codec ID                       : 27
Duration                       : 5 min 8 s
Bit rate mode                  : Variable
Bit rate                       : 33.5 Mb/s
Maximum bit rate               : 37.0 Mb/s
Width                          : 1 920 pixels
Height                         : 1 080 pixels
Display aspect ratio           : 16:9
Frame rate                     : 29.970 (30000/1001) FPS
Color space                    : YUV
Chroma subsampling             : 4:2:0
Bit depth                      : 8 bits
Scan type                      : MBAFF
Scan type, store method        : Interleaved fields
Scan order                     : Top Field First
Bits/(Pixel*Frame)             : 0.539
Stream size                    : 1.20 GiB (92%)

Audio
ID                             : 4352 (0x1100)
Menu ID                        : 1 (0x1)
Format                         : PCM
Format settings                : Big / Signed
Muxing mode                    : Blu-ray
Codec ID                       : 128
Duration                       : 5 min 8 s
Bit rate mode                  : Constant
Bit rate                       : 1 536 kb/s
Channel(s)                     : 2 channels
Channel layout                 : L R
Sampling rate                  : 48.0 kHz
Bit depth                      : 16 bits
Stream size                    : 56.5 MiB (4%)

</pre>
</div>
<div class="bbCodeBlock bbCodeVfcHH HiddenContent">
<div class="attribution type">Hidden Content:</div>
<blockquote>You must reply before you can see the hidden data contained here.</blockquote>
</div>
<div class="messageTextEndMarker">&nbsp;</div>
</blockquote>
</article>]]></description>
                <author><![CDATA[Crimseney101]]></author>
                </item>

                
                <item>
                <title><![CDATA[【BLU-RAY &amp; BD RIP】AKB48- Manatsu no Sounds good! (Dance ver.) M2TS LPCM]]></title>
                <link><![CDATA[https://sharemania.us/threads/akb48-manatsu-no-sounds-good-dance-ver-m2ts-lpcm.235452/]]></link>
                <description><![CDATA[<article>
<blockquote class="messageText SelectQuoteContainer ugc baseHtml">
<img src="https://i.imgur.com/5FLXJzl.jpg" class="bbCodeImage LbImage" alt="[​IMG]" data-url="https://i.imgur.com/5FLXJzl.jpg" style=""> <br>
<div class="bbCodeBlock bbCodeCode">
<div class="type">Code:</div>
<pre>General
ID                             : 0 (0x0)
Complete name                  : D:\♬.AKB48 MV         Blu-ray 1920x1080\♬.Manatsu no Sounds good!  -Dance ver.-.m2ts
Format                         : BDAV
Format/Info                    : Blu-ray Video
File size                      : 1.39 GiB
Duration                       : 5 min 26 s
Overall bit rate mode          : Variable
Overall bit rate               : 36.5 Mb/s
Maximum Overall bit rate       : 48.0 Mb/s
Frame rate                     : 29.970 FPS

Video
ID                             : 4113 (0x1011)
Menu ID                        : 1 (0x1)
Format                         : AVC
Format/Info                    : Advanced Video Codec
Format profile                 : High@L4.1
Format settings                : CABAC / 4 Ref Frames
Format settings, CABAC         : Yes
Format settings, Reference fra : 4 frames
Codec ID                       : 27
Duration                       : 5 min 27 s
Bit rate mode                  : Variable
Bit rate                       : 33.5 Mb/s
Maximum bit rate               : 37.0 Mb/s
Width                          : 1 920 pixels
Height                         : 1 080 pixels
Display aspect ratio           : 16:9
Frame rate                     : 29.970 (30000/1001) FPS
Color space                    : YUV
Chroma subsampling             : 4:2:0
Bit depth                      : 8 bits
Scan type                      : MBAFF
Scan type, store method        : Interleaved fields
Scan order                     : Top Field First
Bits/(Pixel*Frame)             : 0.538
Stream size                    : 1.28 GiB (92%)

Audio
ID                             : 4352 (0x1100)
Menu ID                        : 1 (0x1)
Format                         : PCM
Format settings                : Big / Signed
Muxing mode                    : Blu-ray
Codec ID                       : 128
Duration                       : 5 min 27 s
Bit rate mode                  : Constant
Bit rate                       : 1 536 kb/s
Channel(s)                     : 2 channels
Channel layout                 : L R
Sampling rate                  : 48.0 kHz
Bit depth                      : 16 bits
Stream size                    : 60.0 MiB (4%)

</pre>
</div>
<div class="bbCodeBlock bbCodeVfcHH HiddenContent">
<div class="attribution type">Hidden Content:</div>
<blockquote>You must reply before you can see the hidden data contained here.</blockquote>
</div>
<div class="messageTextEndMarker">&nbsp;</div>
</blockquote>
</article>]]></description>
                <author><![CDATA[Crimseney101]]></author>
                </item>

                </channel></rss>